{"accessors":[{"bufferView":2,"componentType":5126,"count":20,"max":[0.01855042204260826,-0.04100308194756508,-0.04099974408745766],"min":[-0.019049586728215218,-0.04114308953285217,-0.056999750435352325],"type":"VEC3","byteOffset":0},{"bufferView":2,"byteOffset":240,"componentType":5126,"count":20,"max":[1,0,1],"min":[-1,-1,-1],"type":"VEC3"},{"bufferView":3,"componentType":5126,"count":20,"max":[1,7.065634832770229e-8,0,1],"min":[-1,-1.0598452604426711e-7,-1,1],"type":"VEC4","byteOffset":0},{"bufferView":1,"componentType":5126,"count":20,"max":[0.9946506023406982,0.9748159050941467],"min":[0.0034667253494262695,0.017371535301208496],"type":"VEC2","byteOffset":0},{"bufferView":0,"componentType":5125,"count":30,"max":[19],"min":[0],"type":"SCALAR","byteOffset":0},{"bufferView":2,"byteOffset":480,"componentType":5126,"count":602,"max":[0.01675042137503624,-0.04239308089017868,-0.029249748215079308],"min":[-0.017249584197998047,-0.04242308437824249,-0.06749975681304932],"type":"VEC3"},{"bufferView":2,"byteOffset":7704,"componentType":5126,"count":602,"max":[1,0.0000043863383325515315,1],"min":[-1,-1,-1],"type":"VEC3"},{"bufferView":3,"byteOffset":320,"componentType":5126,"count":602,"max":[1,1,0.776182234287262,1],"min":[-0.8622110486030579,-1,-1,1],"type":"VEC4"},{"bufferView":1,"byteOffset":160,"componentType":5126,"count":602,"max":[0.9684203863143921,0.9641174674034119],"min":[0.019828420132398605,0.019828420132398605],"type":"VEC2"},{"bufferView":0,"byteOffset":120,"componentType":5125,"count":1542,"max":[601],"min":[0],"type":"SCALAR"},{"bufferView":2,"byteOffset":14928,"componentType":5126,"count":1001,"max":[0.017214545980095863,-0.04127205163240433,-0.04256683215498924],"min":[-0.017634522169828415,-0.04127205163240433,-0.055192068219184875],"type":"VEC3"},{"bufferView":2,"byteOffset":26940,"componentType":5126,"count":1001,"max":[0,0.3511234521865845,1],"min":[0,-1,-0.9828722476959229],"type":"VEC3"},{"bufferView":3,"byteOffset":9952,"componentType":5126,"count":1001,"max":[1,0.0019173145992681384,1,1],"min":[-1,-0.00037857668939977884,-1,1],"type":"VEC4"},{"bufferView":1,"byteOffset":4976,"componentType":5126,"count":1001,"max":[0.978111207485199,0.9744119048118591],"min":[0,0],"type":"VEC2"},{"bufferView":0,"byteOffset":6288,"componentType":5125,"count":1254,"max":[1000],"min":[0],"type":"SCALAR"},{"bufferView":2,"byteOffset":38952,"componentType":5126,"count":8,"max":[0.01805042289197445,-0.041143082082271576,-0.041499748826026917],"min":[-0.018549585714936256,-0.04209308326244354,-0.05649975687265396],"type":"VEC3"},{"bufferView":2,"byteOffset":39048,"componentType":5126,"count":8,"max":[0,1,0],"min":[0,-1,-4.2409917000441055e-7],"type":"VEC3"},{"bufferView":3,"byteOffset":25968,"componentType":5126,"count":8,"max":[0,0,1,1],"min":[-2.2541640125690605e-34,-4.2409917000441055e-7,-1,1],"type":"VEC4"},{"bufferView":1,"byteOffset":12984,"componentType":5126,"count":8,"max":[0.7931454181671143,0.9155440330505371],"min":[0.01958383060991764,0.01958383060991764],"type":"VEC2"},{"bufferView":0,"byteOffset":11304,"componentType":5125,"count":12,"max":[7],"min":[0],"type":"SCALAR"},{"bufferView":2,"byteOffset":39144,"componentType":5126,"count":1666,"max":[0.027250422164797783,-0.04114307835698128,-0.021499749273061752],"min":[-0.02774958498775959,-0.04239308461546898,-0.07649976015090942],"type":"VEC3"},{"bufferView":2,"byteOffset":59136,"componentType":5126,"count":1666,"max":[1,1,1],"min":[-1,-1,-1],"type":"VEC3"},{"bufferView":3,"byteOffset":26096,"componentType":5126,"count":1666,"max":[1,1,1,1],"min":[-1,-1,-1,1],"type":"VEC4"},{"bufferView":1,"byteOffset":13048,"componentType":5126,"count":1666,"max":[0.9933523535728455,0.9518030881881714],"min":[0.0070770252496004105,0.015040931291878223],"type":"VEC2"},{"bufferView":0,"byteOffset":11352,"componentType":5125,"count":5730,"max":[1665],"min":[0],"type":"SCALAR"},{"bufferView":2,"byteOffset":79128,"componentType":5126,"count":2760,"max":[0.03325050324201584,0.01599692553281784,-5.21540641784668e-8],"min":[-0.03374966233968735,-0.04150308296084404,-0.08249983191490173],"type":"VEC3"},{"bufferView":2,"byteOffset":112248,"componentType":5126,"count":2760,"max":[1,1,1],"min":[-1,-1,-1],"type":"VEC3"},{"bufferView":3,"byteOffset":52752,"componentType":5126,"count":2760,"max":[1,1,1,1],"min":[-1,-1,-1,1],"type":"VEC4"},{"bufferView":1,"byteOffset":26376,"componentType":5126,"count":2760,"max":[0.9744516611099243,0.99468994140625],"min":[0.004273282364010811,0.004273282364010811],"type":"VEC2"},{"bufferView":0,"byteOffset":34272,"componentType":5125,"count":7350,"max":[2759],"min":[0],"type":"SCALAR"},{"bufferView":2,"byteOffset":145368,"componentType":5126,"count":2092,"max":[0.0297504011541605,0.015996932983398438,-0.01850407011806965],"min":[-0.03024960868060589,-0.01795307733118534,-0.07899977266788483],"type":"VEC3"},{"bufferView":2,"byteOffset":170472,"componentType":5126,"count":2092,"max":[0.9993914365768433,1,1],"min":[-1,-1,-1],"type":"VEC3"},{"bufferView":3,"byteOffset":96912,"componentType":5126,"count":2092,"max":[1,1,1,1],"min":[-1,-1,-1,1],"type":"VEC4"},{"bufferView":1,"byteOffset":48456,"componentType":5126,"count":2092,"max":[0.9130018949508667,0.9896304607391357],"min":[0.00945808831602335,0.0073255738243460655],"type":"VEC2"},{"bufferView":0,"byteOffset":63672,"componentType":5125,"count":5646,"max":[2091],"min":[0],"type":"SCALAR"},{"bufferView":2,"byteOffset":195576,"componentType":5126,"count":607,"max":[0.006250419653952122,0.0359969288110733,-0.06400006264448166],"min":[-0.006749582476913929,0.014496924355626106,-0.07700005918741226],"type":"VEC3"},{"bufferView":2,"byteOffset":202860,"componentType":5126,"count":607,"max":[1,1,1],"min":[-1,-0.000013470649719238281,-1],"type":"VEC3"},{"bufferView":3,"byteOffset":130384,"componentType":5126,"count":607,"max":[1,1,1,1],"min":[-1,-0.9998037219047546,-1,1],"type":"VEC4"},{"bufferView":1,"byteOffset":65192,"componentType":5126,"count":607,"max":[0.9910942912101746,0.983896017074585],"min":[0.007613971829414368,0.03176319599151611],"type":"VEC2"},{"bufferView":0,"byteOffset":86256,"componentType":5125,"count":2292,"max":[606],"min":[0],"type":"SCALAR"},{"bufferView":2,"byteOffset":210144,"componentType":5126,"count":1268,"max":[0.006984850391745567,-0.04217446595430374,-0.031727321445941925],"min":[-0.0074840122833848,-0.04217446595430374,-0.03345131874084473],"type":"VEC3"},{"bufferView":2,"byteOffset":225360,"componentType":5126,"count":1268,"max":[0,1,0.999273955821991],"min":[0,-1,-0.9982188940048218],"type":"VEC3"},{"bufferView":3,"byteOffset":140096,"componentType":5126,"count":1268,"max":[1,0.009164644405245781,0.9927462935447693,1],"min":[-0.19925019145011902,-0.00017002748791128397,-0.8984637260437012,-1],"type":"VEC4"},{"bufferView":1,"byteOffset":70048,"componentType":5126,"count":1268,"max":[1,1],"min":[0,0],"type":"VEC2"},{"bufferView":0,"byteOffset":95424,"componentType":5125,"count":1713,"max":[1267],"min":[0],"type":"SCALAR"},{"bufferView":2,"byteOffset":240576,"componentType":5126,"count":1668,"max":[0.013354429043829441,0.01369945053011179,-0.0011564334854483604],"min":[-0.013145572505891323,-0.012800549156963825,-0.015101687982678413],"type":"VEC3"},{"bufferView":2,"byteOffset":260592,"componentType":5126,"count":1668,"max":[1,1,1],"min":[-1,-1,-1],"type":"VEC3"},{"bufferView":3,"byteOffset":160384,"componentType":5126,"count":1668,"max":[1,1,1,1],"min":[-1,-1,-1,1],"type":"VEC4"},{"bufferView":1,"byteOffset":80192,"componentType":5126,"count":1668,"max":[0.9930922985076904,0.9904009699821472],"min":[0.006907694041728973,0.006907694041728973],"type":"VEC2"},{"bufferView":0,"byteOffset":102276,"componentType":5125,"count":3918,"max":[1667],"min":[0],"type":"SCALAR"},{"bufferView":2,"byteOffset":280608,"componentType":5126,"count":4440,"max":[0.010330842807888985,0.011660056188702583,0.003831594018265605],"min":[-0.004259537905454636,-0.002295080805197358,-0.0033748846035450697],"type":"VEC3"},{"bufferView":2,"byteOffset":333888,"componentType":5126,"count":4440,"max":[1,1,1],"min":[-1,-1,-1],"type":"VEC3"},{"bufferView":3,"byteOffset":187072,"componentType":5126,"count":4440,"max":[0.999797523021698,0.9999366998672485,0.9999834299087524,1],"min":[-1,-0.9999455213546753,-0.9999808073043823,-1],"type":"VEC4"},{"bufferView":1,"byteOffset":93536,"componentType":5126,"count":4440,"max":[0.9837543964385986,0.9840285778045654],"min":[0,0],"type":"VEC2"},{"bufferView":0,"byteOffset":117948,"componentType":5125,"count":10116,"max":[4439],"min":[0],"type":"SCALAR"},{"bufferView":2,"byteOffset":387168,"componentType":5126,"count":550,"max":[0.0139999995008111,0.0139999995008111,0.004000000189989805],"min":[-0.0139999995008111,-0.0139999995008111,-6.119593720654848e-10],"type":"VEC3"},{"bufferView":2,"byteOffset":393768,"componentType":5126,"count":550,"max":[1,1,1],"min":[-1,-1,-1],"type":"VEC3"},{"bufferView":3,"byteOffset":258112,"componentType":5126,"count":550,"max":[1,1,1,1],"min":[-1,-1,-1,1],"type":"VEC4"},{"bufferView":1,"byteOffset":129056,"componentType":5126,"count":550,"max":[0.9888576865196228,0.9913431406021118],"min":[0.009135857224464417,0.00911133922636509],"type":"VEC2"},{"bufferView":0,"byteOffset":158412,"componentType":5125,"count":1548,"max":[549],"min":[0],"type":"SCALAR"}],"asset":{"extras":{"author":"termagroup (https://sketchfab.com/termagroup)","license":"CC-BY-4.0 (http://creativecommons.org/licenses/by/4.0/)","source":"https://sketchfab.com/models/45d0a3c40360447aabb5da47592818db","title":"KTX 3 electric heating element"},"generator":"Sketchfab-3.19.4","version":"2.0"},"bufferViews":[{"buffer":0,"byteLength":164604,"byteOffset":0,"name":"floatBufferViews","target":34963},{"buffer":0,"byteLength":133456,"byteOffset":164604,"byteStride":8,"name":"floatBufferViews","target":34962},{"buffer":0,"byteLength":400368,"byteOffset":298060,"byteStride":12,"name":"floatBufferViews","target":34962},{"buffer":0,"byteLength":266912,"byteOffset":698428,"byteStride":16,"name":"floatBufferViews","target":34962},{"buffer":0,"byteOffset":965340,"byteLength":604},{"buffer":0,"byteOffset":965944,"byteLength":2246},{"buffer":0,"byteOffset":968192,"byteLength":602},{"buffer":0,"byteOffset":968796,"byteLength":603},{"buffer":0,"byteOffset":969400,"byteLength":2822},{"buffer":0,"byteOffset":972224,"byteLength":603},{"buffer":0,"byteOffset":972828,"byteLength":3346},{"buffer":0,"byteOffset":976176,"byteLength":600},{"buffer":0,"byteOffset":976776,"byteLength":3213},{"buffer":0,"byteOffset":979992,"byteLength":1013},{"buffer":0,"byteOffset":981008,"byteLength":822},{"buffer":0,"byteOffset":981832,"byteLength":603},{"buffer":0,"byteOffset":982436,"byteLength":2700},{"buffer":0,"byteOffset":985136,"byteLength":604},{"buffer":0,"byteOffset":985740,"byteLength":488},{"buffer":0,"byteOffset":986228,"byteLength":1562},{"buffer":0,"byteOffset":987792,"byteLength":4132},{"buffer":0,"byteOffset":991924,"byteLength":600},{"buffer":0,"byteOffset":992524,"byteLength":2853},{"buffer":0,"byteOffset":995380,"byteLength":603},{"buffer":0,"byteOffset":995984,"byteLength":490},{"buffer":0,"byteOffset":996476,"byteLength":604},{"buffer":0,"byteOffset":997080,"byteLength":3559},{"buffer":0,"byteOffset":1000640,"byteLength":1609},{"buffer":0,"byteOffset":1002252,"byteLength":2725}],"buffers":[{"byteLength":1004980,"uri":"data:application/octet-stream;base64,"}],"images":[{"bufferView":4,"mimeType":"image/png"},{"bufferView":5,"mimeType":"image/png"},{"bufferView":6,"mimeType":"image/png"},{"bufferView":7,"mimeType":"image/png"},{"bufferView":8,"mimeType":"image/png"},{"bufferView":9,"mimeType":"image/png"},{"bufferView":10,"mimeType":"image/png"},{"bufferView":11,"mimeType":"image/png"},{"bufferView":12,"mimeType":"image/png"},{"bufferView":13,"mimeType":"image/png"},{"bufferView":14,"mimeType":"image/png"},{"bufferView":15,"mimeType":"image/png"},{"bufferView":16,"mimeType":"image/png"},{"bufferView":17,"mimeType":"image/png"},{"bufferView":18,"mimeType":"image/png"},{"bufferView":19,"mimeType":"image/png"},{"bufferView":20,"mimeType":"image/png"},{"bufferView":21,"mimeType":"image/png"},{"bufferView":22,"mimeType":"image/png"},{"bufferView":23,"mimeType":"image/png"},{"bufferView":24,"mimeType":"image/png"},{"bufferView":25,"mimeType":"image/png"},{"bufferView":26,"mimeType":"image/png"},{"bufferView":27,"mimeType":"image/png"},{"bufferView":28,"mimeType":"image/png"}],"materials":[{"doubleSided":false,"name":"obudowa_inside","occlusionTexture":{"index":10,"strength":1,"texCoord":0},"pbrMetallicRoughness":{"baseColorFactor":[1,1,1,1],"baseColorTexture":{"index":9,"texCoord":0},"metallicFactor":1,"metallicRoughnessTexture":{"index":10,"texCoord":0},"roughnessFactor":1},"emissiveFactor":[0,0,0],"alphaMode":"OPAQUE"},{"doubleSided":false,"name":"symbole","occlusionTexture":{"index":4,"strength":1,"texCoord":0},"pbrMetallicRoughness":{"baseColorFactor":[1,1,1,1],"baseColorTexture":{"index":3,"texCoord":0},"metallicFactor":1,"metallicRoughnessTexture":{"index":4,"texCoord":0},"roughnessFactor":1},"emissiveFactor":[0,0,0],"alphaMode":"OPAQUE"},{"doubleSided":false,"name":"cyfry","pbrMetallicRoughness":{"baseColorFactor":[1,1,1,1],"baseColorTexture":{"index":13,"texCoord":0},"metallicFactor":1,"metallicRoughnessTexture":{"index":14,"texCoord":0},"roughnessFactor":1},"emissiveFactor":[0,0,0],"alphaMode":"OPAQUE"},{"alphaMode":"BLEND","doubleSided":true,"name":"display","normalTexture":{"index":2,"scale":1,"texCoord":0},"occlusionTexture":{"index":1,"strength":1,"texCoord":0},"pbrMetallicRoughness":{"baseColorFactor":[1,1,1,0.5],"baseColorTexture":{"index":0,"texCoord":0},"metallicFactor":1,"metallicRoughnessTexture":{"index":1,"texCoord":0},"roughnessFactor":1},"emissiveFactor":[0,0,0]},{"doubleSided":true,"name":"klawiatura","occlusionTexture":{"index":16,"strength":1,"texCoord":0},"pbrMetallicRoughness":{"baseColorFactor":[1,1,1,1],"baseColorTexture":{"index":15,"texCoord":0},"metallicFactor":1,"metallicRoughnessTexture":{"index":16,"texCoord":0},"roughnessFactor":1},"emissiveFactor":[0,0,0],"alphaMode":"OPAQUE"},{"doubleSided":false,"name":"ktx3_obudowa_standalone","occlusionTexture":{"index":8,"strength":1,"texCoord":0},"pbrMetallicRoughness":{"baseColorFactor":[1,1,1,1],"baseColorTexture":{"index":7,"texCoord":0},"metallicFactor":1,"metallicRoughnessTexture":{"index":8,"texCoord":0},"roughnessFactor":1},"emissiveFactor":[0,0,0],"alphaMode":"OPAQUE"},{"doubleSided":false,"name":"screw","occlusionTexture":{"index":18,"strength":1,"texCoord":0},"pbrMetallicRoughness":{"baseColorFactor":[1,1,1,1],"baseColorTexture":{"index":17,"texCoord":0},"metallicFactor":1,"metallicRoughnessTexture":{"index":18,"texCoord":0},"roughnessFactor":1},"emissiveFactor":[0,0,0],"alphaMode":"OPAQUE"},{"alphaMode":"BLEND","doubleSided":true,"name":"kabel","occlusionTexture":{"index":24,"strength":1,"texCoord":0},"pbrMetallicRoughness":{"baseColorFactor":[1,1,1,1],"baseColorTexture":{"index":23,"texCoord":0},"metallicFactor":1,"metallicRoughnessTexture":{"index":24,"texCoord":0},"roughnessFactor":1},"emissiveFactor":[0,0,0]},{"doubleSided":false,"name":"logo","pbrMetallicRoughness":{"baseColorFactor":[1,1,1,1],"baseColorTexture":{"index":19,"texCoord":0},"metallicFactor":1,"metallicRoughnessTexture":{"index":20,"texCoord":0},"roughnessFactor":1},"emissiveFactor":[0,0,0],"alphaMode":"OPAQUE"},{"doubleSided":false,"name":"gniazdo_ts_ktx_blue_anim","occlusionTexture":{"index":22,"strength":0.6684486821,"texCoord":0},"pbrMetallicRoughness":{"baseColorFactor":[1,1,1,1],"baseColorTexture":{"index":21,"texCoord":0},"metallicFactor":1,"metallicRoughnessTexture":{"index":22,"texCoord":0},"roughnessFactor":1},"emissiveFactor":[0,0,0],"alphaMode":"OPAQUE"},{"doubleSided":false,"name":"zlacza_ts_obudowa_ktx_blue_anim","occlusionTexture":{"index":12,"strength":0.6495807576,"texCoord":0},"pbrMetallicRoughness":{"baseColorFactor":[1,1,1,1],"baseColorTexture":{"index":11,"texCoord":0},"metallicFactor":1,"metallicRoughnessTexture":{"index":12,"texCoord":0},"roughnessFactor":1},"emissiveFactor":[0,0,0],"alphaMode":"OPAQUE"},{"doubleSided":true,"name":"pierscien_metalowy_ts","occlusionTexture":{"index":6,"strength":0.737631072,"texCoord":0},"pbrMetallicRoughness":{"baseColorFactor":[1,1,1,1],"baseColorTexture":{"index":5,"texCoord":0},"metallicFactor":1,"metallicRoughnessTexture":{"index":6,"texCoord":0},"roughnessFactor":1},"emissiveFactor":[0,0,0],"alphaMode":"OPAQUE"}],"meshes":[{"name":"obudowa_inside_obudowa_inside_0","primitives":[{"attributes":{"NORMAL":1,"POSITION":0,"TANGENT":2,"TEXCOORD_0":3},"indices":4,"material":0,"mode":4}]},{"name":"symbole_symbole_0","primitives":[{"attributes":{"NORMAL":6,"POSITION":5,"TANGENT":7,"TEXCOORD_0":8},"indices":9,"material":1,"mode":4}]},{"name":"cyfry_cyfry_0","primitives":[{"attributes":{"NORMAL":11,"POSITION":10,"TANGENT":12,"TEXCOORD_0":13},"indices":14,"material":2,"mode":4}]},{"name":"display_display_0","primitives":[{"attributes":{"NORMAL":16,"POSITION":15,"TANGENT":17,"TEXCOORD_0":18},"indices":19,"material":3,"mode":4}]},{"name":"klawiatura_klawiatura_0","primitives":[{"attributes":{"NORMAL":21,"POSITION":20,"TANGENT":22,"TEXCOORD_0":23},"indices":24,"material":4,"mode":4}]},{"name":"ktx3_obudowa_standalone_ktx3_obudowa_standalone_0","primitives":[{"attributes":{"NORMAL":26,"POSITION":25,"TANGENT":27,"TEXCOORD_0":28},"indices":29,"material":5,"mode":4}]},{"name":"screw_screw_0","primitives":[{"attributes":{"NORMAL":31,"POSITION":30,"TANGENT":32,"TEXCOORD_0":33},"indices":34,"material":6,"mode":4}]},{"name":"kabel_kabel_0","primitives":[{"attributes":{"NORMAL":36,"POSITION":35,"TANGENT":37,"TEXCOORD_0":38},"indices":39,"material":7,"mode":4}]},{"name":"logo_logo_0","primitives":[{"attributes":{"NORMAL":41,"POSITION":40,"TANGENT":42,"TEXCOORD_0":43},"indices":44,"material":8,"mode":4}]},{"name":"gniazdo_ts_ktx_blue_anim_gniazdo_ts_ktx_blue_anim_0","primitives":[{"attributes":{"NORMAL":46,"POSITION":45,"TANGENT":47,"TEXCOORD_0":48},"indices":49,"material":9,"mode":4}]},{"name":"ktx_zlacza_ts_blue_anim_zlacza_ts_obudowa_ktx_blue_anim_0","primitives":[{"attributes":{"NORMAL":51,"POSITION":50,"TANGENT":52,"TEXCOORD_0":53},"indices":54,"material":10,"mode":4}]},{"name":"pierscien_metalowy_ts_ktx_blue_anim_pierscien_metalowy_ts_0","primitives":[{"attributes":{"NORMAL":56,"POSITION":55,"TANGENT":57,"TEXCOORD_0":58},"indices":59,"material":11,"mode":4}]}],"nodes":[{"children":[1],"name":"RootNode (gltf orientation matrix)","rotation":[-0.7071067811865475,0,0,0.7071067811865476],"translation":[0,0,0],"scale":[1,1,1]},{"children":[2],"name":"RootNode (model correction matrix)"},{"children":[3],"matrix":[1,0,0,0,0,0,1,0,0,-1,0,0,0,0,0,1],"name":"ktx_3_standalone.fbx"},{"children":[4,6,8,10,12,14,16,18,20,22,24,26],"name":"RootNode"},{"children":[5],"matrix":[100,0,0,0,0,-0.00001629206793918314,-99.99999999999868,0,0,99.99999999999868,-0.00001629206793918314,0,0,0,-0.07500000298023224,1],"name":"obudowa_inside"},{"mesh":0,"name":"obudowa_inside_obudowa_inside_0"},{"children":[7],"matrix":[100,0,0,0,0,-0.00001629206793918314,-99.99999999999868,0,0,99.99999999999868,-0.00001629206793918314,0,0,0,-0.07500000298023224,1],"name":"symbole"},{"mesh":1,"name":"symbole_symbole_0"},{"children":[9],"matrix":[100,0,0,0,0,-0.00001629206793918314,-99.99999999999868,0,0,99.99999999999868,-0.00001629206793918314,0,0,0,-0.07500000298023224,1],"name":"cyfry"},{"mesh":2,"name":"cyfry_cyfry_0"},{"children":[11],"matrix":[100,0,0,0,0,-0.00001629206793918314,-99.99999999999868,0,0,99.99999999999868,-0.00001629206793918314,0,0,0,-0.07500000298023224,1],"name":"display"},{"mesh":3,"name":"display_display_0"},{"children":[13],"matrix":[100,0,0,0,0,-0.00001629206793918314,-99.99999999999868,0,0,99.99999999999868,-0.00001629206793918314,0,0,0,-0.07500000298023224,1],"name":"klawiatura"},{"mesh":4,"name":"klawiatura_klawiatura_0"},{"children":[15],"matrix":[100,0,0,0,0,-0.00001629206793918314,-99.99999999999868,0,0,99.99999999999868,-0.00001629206793918314,0,0,0,0,1],"name":"ktx3_obudowa_standalone"},{"mesh":5,"name":"ktx3_obudowa_standalone_ktx3_obudowa_standalone_0"},{"children":[17],"matrix":[100,0,0,0,0,-0.00001629206793918314,-99.99999999999868,0,0,99.99999999999868,-0.00001629206793918314,0,0,0,0,1],"name":"screw"},{"mesh":6,"name":"screw_screw_0"},{"children":[19],"matrix":[100,0,0,0,0,-0.00001629206793918314,-99.99999999999868,0,0,99.99999999999868,-0.00001629206793918314,0,0,0,0,1],"name":"kabel"},{"mesh":7,"name":"kabel_kabel_0"},{"children":[21],"matrix":[100,0,0,0,0,-0.00001629206793918314,-99.99999999999868,0,0,99.99999999999868,-0.00001629206793918314,0,0,0,-0.07500000298023224,1],"name":"logo"},{"mesh":8,"name":"logo_logo_0"},{"children":[23],"matrix":[100,0,0,0,0,-0.00001629206793918314,-99.99999999999868,0,0,99.99999999999868,-0.00001629206793918314,0,-0.010439753532409668,-2.0993552207946777,0.04494534805417061,1],"name":"gniazdo_ts_ktx_blue_anim"},{"mesh":9,"name":"gniazdo_ts_ktx_blue_anim_gniazdo_ts_ktx_blue_anim_0"},{"children":[25],"matrix":[100,0,0,0,0,-0.00001629206793918314,-99.99999999999868,0,0,99.99999999999868,-0.00001629206793918314,0,-0.3032118082046509,-3.1721584796905518,0.4342091381549835,1],"name":"ktx_zlacza_ts_blue_anim"},{"mesh":10,"name":"ktx_zlacza_ts_blue_anim_zlacza_ts_obudowa_ktx_blue_anim_0"},{"children":[27],"matrix":[100,0,0,0,0,-0.00001629206793918314,-99.99999999999868,0,0,99.99999999999868,-0.00001629206793918314,0,0,-2.200000047683716,0,1],"name":"pierscien_metalowy_ts_ktx_blue_anim"},{"mesh":11,"name":"pierscien_metalowy_ts_ktx_blue_anim_pierscien_metalowy_ts_0"}],"samplers":[{"magFilter":9729,"minFilter":9987,"wrapS":10497,"wrapT":10497}],"scene":0,"scenes":[{"name":"OSG_Scene","nodes":[0]}],"textures":[{"sampler":0,"source":0},{"sampler":0,"source":1},{"sampler":0,"source":2},{"sampler":0,"source":3},{"sampler":0,"source":4},{"sampler":0,"source":5},{"sampler":0,"source":6},{"sampler":0,"source":7},{"sampler":0,"source":8},{"sampler":0,"source":9},{"sampler":0,"source":10},{"sampler":0,"source":11},{"sampler":0,"source":12},{"sampler":0,"source":13},{"sampler":0,"source":14},{"sampler":0,"source":15},{"sampler":0,"source":16},{"sampler":0,"source":17},{"sampler":0,"source":18},{"sampler":0,"source":19},{"sampler":0,"source":20},{"sampler":0,"source":21},{"sampler":0,"source":22},{"sampler":0,"source":23},{"sampler":0,"source":24}]}
